<?xml version="1.0" encoding="UTF-8" standalone="no"?>
<svg
   xmlns="http://www.w3.org/2000/svg"
   width="1066.6666"
   height="461.34369"
   id="svg2"
   viewBox="0 0 1000 432.5097">
  <g
     transform="translate(-186.78419,-1561.0133)">
    <path
       id="path3021"
       style="fill:#000000;stroke:none"
       d="m 342.91476,1951.8929 c 0,18.8117 6.57145,26.1773 16.61817,26.1773 25.14269,0 65.1996,-58.6849 63.67842,-120.2978 38.12439,-40.2183 83.82612,-103.2202 83.82612,-153.6812 0,-12.2152 -3.46381,-22.5007 -17.94172,-22.5007 -22.13453,0 -53.76345,38.1493 -73.82581,76.0318 -19.34794,39.2463 -37.44675,84.0096 -61.47249,145.4456 -5.61391,15.4098 -10.88269,34.0734 -10.88269,48.825 z m 543.84029,-83.7525 v 31.6186 c 0,0 15.67312,11.3239 46.25142,11.3239 46.41297,0 66.80353,-25.8958 66.80353,-54.1561 0,-61.2444 -82.46577,-46.6049 -82.46577,-87.2453 0,-15.2737 12.16097,-26.3244 32.57453,-26.3244 23.83843,0 41.39834,12.721 41.39834,12.721 v -29.2656 c 0,0 -16.32242,-9.0444 -39.85418,-9.0444 -39.68676,0 -64.41375,24.785 -64.41375,54.5605 0,60.5501 82.20843,48.7052 82.20843,88.1645 0,18.1348 -14.9105,24.7066 -34.19224,24.7066 -27.60166,0 -48.31031,-17.0593 -48.31031,-17.0593 z m 299.52915,38.5995 h -29.5193 v -105.1175 c -10e-5,-39.1189 -14.2798,-58.6784 -42.8389,-58.6786 -14.7599,2e-4 -26.9695,5.55 -36.6292,16.6496 -9.6599,11.0998 -14.4897,25.1095 -14.4897,42.029 v 105.1175 h -29.5192 v -184.3156 h 29.5192 v 30.5993 h 0.7198 c 13.9196,-23.2793 34.079,-34.919 60.4785,-34.9192 20.1594,2e-4 35.579,6.51 46.2589,19.5295 10.6796,13.0198 16.0195,31.8294 16.0196,56.4286 z m -331.75473,0 h -29.51926 v -105.8375 c -2.7e-4,-20.3994 -3.15013,-35.159 -9.44976,-44.279 -6.3001,-9.1195 -16.88986,-13.6794 -31.76929,-13.6796 -12.59991,2e-4 -23.30957,5.76 -32.12916,17.2796 -8.82006,11.5198 -13.2299,25.3195 -13.22971,41.399 v 105.1175 h -29.51935 v -109.4374 c -9e-5,-36.239 -13.97978,-54.3585 -41.93899,-54.3587 -12.95978,2e-4 -23.63949,5.43 -32.03921,16.2896 -8.39991,10.8599 -12.59973,24.9895 -12.59973,42.389 v 105.1175 h -29.51925 v -184.3156 h 29.51925 v 29.1593 h 0.71976 c 13.07958,-22.3193 32.15911,-33.479 57.23856,-33.4792 12.59964,2e-4 23.57932,3.5101 32.93923,10.5297 9.35964,7.02 15.77954,16.2298 19.2596,27.6294 13.67945,-25.4393 34.07895,-38.1589 61.1985,-38.1591 40.55874,2e-4 60.83825,25.0196 60.83853,75.0582 z m -620.554,86.2831 c -25.20682,0 -46.69128,-15.8211 -46.69128,-51.6828 0,-55.361 47.64151,-97.4029 69.25699,-109.293 0,0 30.24262,17.4218 61.61748,28.6328 -62.33909,-39.4415 -102.17337,-111.3037 -102.17337,-191.0644 0,-74.5411 39.34556,-108.1023 74.86905,-108.1023 28.57681,0 96.32649,31.4361 96.32649,152.0635 0,129.7996 -67.72984,279.4462 -153.20536,279.4462 z" />
  </g>
</svg>
